<svg xmlns="http://www.w3.org/2000/svg" viewBox="0 0 100 100" width="100" height="100"><path d="M 92.5 43.5 L 99.0 50.0 L 92.5 56.5 Z" fill="#B5852E"/><path d="M 91.8 60.3 L 92.5 67.6 L 86.8 72.2 Z" fill="#B5852E"/><path d="M 84.6 75.5 L 84.6 84.6 L 75.5 84.6 Z" fill="#B5852E"/><path d="M 72.2 86.8 L 67.6 92.5 L 60.3 91.8 Z" fill="#B5852E"/><path d="M 56.5 92.5 L 50.0 99.0 L 43.5 92.5 Z" fill="#B5852E"/><path d="M 39.7 91.8 L 32.4 92.5 L 27.8 86.8 Z" fill="#B5852E"/><path d="M 24.5 84.6 L 15.4 84.6 L 15.4 75.5 Z" fill="#B5852E"/><path d="M 13.2 72.2 L 7.5 67.6 L 8.2 60.3 Z" fill="#B5852E"/><path d="M 7.5 56.5 L 1.0 50.0 L 7.5 43.5 Z" fill="#B5852E"/><path d="M 8.2 39.7 L 7.5 32.4 L 13.2 27.8 Z" fill="#B5852E"/><path d="M 15.4 24.5 L 15.4 15.4 L 24.5 15.4 Z" fill="#B5852E"/><path d="M 27.8 13.2 L 32.4 7.5 L 39.7 8.2 Z" fill="#B5852E"/><path d="M 43.5 7.5 L 50.0 1.0 L 56.5 7.5 Z" fill="#B5852E"/><path d="M 60.3 8.2 L 67.6 7.5 L 72.2 13.2 Z" fill="#B5852E"/><path d="M 75.5 15.4 L 84.6 15.4 L 84.6 24.5 Z" fill="#B5852E"/><path d="M 86.8 27.8 L 92.5 32.4 L 91.8 39.7 Z" fill="#B5852E"/><path d="M 70.00 15.36 A 40 40 0 1 1 30.00 15.36" fill="none" stroke="#16161F" stroke-width="4.2" stroke-linecap="round" stroke-opacity="1.0"/><path d="M 78.56 44.96 A 29 29 0 1 1 59.92 22.75" fill="none" stroke="#16161F" stroke-width="4.8" stroke-linecap="round" stroke-opacity="1.0"/><path d="M 63.79 61.57 A 18 18 0 1 1 66.91 43.84" fill="none" stroke="#16161F" stroke-width="5.4" stroke-linecap="round" stroke-opacity="1.0"/><circle cx="73.85" cy="11.84" r="10" fill="#574FC7" fill-opacity="0.16"/><circle cx="73.85" cy="11.84" r="5" fill="#574FC7"/></svg>